<svg width="28" height="29" viewBox="0 0 28 29" fill="none" xmlns="http://www.w3.org/2000/svg">
<path d="M22.9123 13.8293C23.1509 14.0679 23.1509 14.4547 22.9123 14.6932L22.1089 15.4967L22.9123 16.3001C23.1509 16.5387 23.1509 16.9254 22.9123 17.164C22.6738 17.4025 22.287 17.4025 22.0485 17.164L21.245 16.3605L20.4416 17.164C20.203 17.4025 19.8163 17.4025 19.5777 17.164C19.3392 16.9254 19.3392 16.5387 19.5777 16.3001L20.3812 15.4967L19.5777 14.6932C19.3392 14.4547 19.3392 14.0679 19.5777 13.8293C19.8163 13.5908 20.203 13.5908 20.4416 13.8293L21.245 14.6328L22.0485 13.8293C22.287 13.5908 22.6738 13.5908 22.9123 13.8293Z" fill="#123B52"/>
<path d="M6.12179 19.3928C6.12179 18.6056 6.75991 17.9675 7.54707 17.9675H18.2124C18.9996 17.9675 19.6377 18.6056 19.6377 19.3928C19.6377 20.1799 18.9996 20.818 18.2124 20.818H7.54707C6.75991 20.818 6.12179 20.1799 6.12179 19.3928Z" fill="#123B52"/>
<path fill-rule="evenodd" clip-rule="evenodd" d="M6.03865 2.12946C5.10723 2.34309 4.37439 2.56569 3.83681 2.75254C3.489 2.87343 3.14664 3.00737 2.81115 3.15895C2.77814 3.1744 2.74539 3.19018 2.7129 3.20627C0.342753 4.38016 -0.665663 7.23363 0.461612 9.64097C0.61186 9.96183 0.79342 10.2598 1.00117 10.5323C1.12671 10.697 1.19287 10.9013 1.17132 11.1073C1.05924 12.1785 0.989138 13.3614 0.989138 14.6344C0.989138 17.2535 1.28585 19.4717 1.63468 21.1748C2.25726 24.2146 4.60513 26.5088 7.64777 27.0773C9.30389 27.3868 11.4503 27.6453 14 27.6453C16.5497 27.6453 18.6962 27.3868 20.3523 27.0773C23.3949 26.5088 25.7428 24.2146 26.3654 21.1748C26.7142 19.4717 27.0109 17.2535 27.0109 14.6344C27.0109 13.3614 26.9408 12.1784 26.8287 11.1073C26.8072 10.9013 26.8733 10.697 26.9989 10.5323C27.2066 10.2598 27.3881 9.96181 27.5384 9.64097C28.6811 7.20062 27.6292 4.30168 25.1889 3.15895L25.1831 3.15626L25.1759 3.1529L25.1617 3.14628L25.1299 3.13177L25.1245 3.12934C25.1 3.11825 25.0725 3.10596 25.042 3.0926C24.9809 3.06586 24.9077 3.03473 24.8223 2.9999C24.6514 2.93026 24.4319 2.84592 24.1632 2.75254C23.6256 2.56569 22.8928 2.34309 21.9614 2.12946C20.0959 1.7016 17.4501 1.31348 14 1.31348C10.5499 1.31348 7.90415 1.7016 6.03865 2.12946ZM12.5678 6.77534C13.3729 6.77534 14.0256 6.12264 14.0256 5.31748C14.0256 4.51233 13.3729 3.85963 12.5678 3.85963C11.7626 3.85963 11.1099 4.51233 11.1099 5.31748C11.1099 6.12264 11.7626 6.77534 12.5678 6.77534ZM9.8882 5.71218C9.8882 6.51733 9.2355 7.17004 8.43034 7.17004C7.62519 7.17004 6.97249 6.51733 6.97249 5.71218C6.97249 4.90703 7.62519 4.25432 8.43034 4.25432C9.2355 4.25432 9.8882 4.90703 9.8882 5.71218ZM5.75076 6.60497C5.75076 7.41012 5.09805 8.06282 4.2929 8.06282C3.48775 8.06282 2.83504 7.41012 2.83504 6.60497C2.83504 5.79982 3.48775 5.14711 4.2929 5.14711C5.09805 5.14711 5.75076 5.79982 5.75076 6.60497ZM24.353 18.1794C24.3322 17.9307 24.4012 17.6844 24.5253 17.468C24.8515 16.8996 25.038 16.2407 25.038 15.5383C25.038 13.3938 23.2997 11.6554 21.1555 11.6554C19.8508 11.6554 18.6964 12.299 17.9924 13.286C17.7471 13.6299 17.3605 13.8689 16.9388 13.844C16.0305 13.7903 15.0326 13.7581 13.9451 13.7581C10.7361 13.7581 8.30713 14.0382 6.65835 14.326C5.00856 14.614 3.79162 15.9308 3.5965 17.5941C3.53638 18.1066 3.49494 18.6275 3.49494 19.0898C3.49494 19.5521 3.53638 20.073 3.5965 20.5856C3.79162 22.2489 5.00856 23.5656 6.65835 23.8536C8.30713 24.1414 10.7361 24.4215 13.9451 24.4215C17.1542 24.4215 19.5831 24.1414 21.2319 23.8536C22.8817 23.5656 24.0986 22.2489 24.2938 20.5856C24.3539 20.073 24.3953 19.5521 24.3953 19.0898C24.3953 18.8035 24.3794 18.4947 24.353 18.1794Z" fill="#123B52"/>
</svg>
