<svg width="36" height="36" viewBox="0 0 36 36" fill="none" xmlns="http://www.w3.org/2000/svg">
<path d="M18.029 8.13752C18.029 9.04634 17.2923 9.78309 16.3834 9.78309C15.4746 9.78309 14.7379 9.04634 14.7379 8.13752C14.7379 7.22869 15.4746 6.49194 16.3834 6.49194C17.2923 6.49194 18.029 7.22869 18.029 8.13752Z" fill="#123B52"/>
<path d="M11.7132 10.2286C12.6221 10.2286 13.3588 9.49186 13.3588 8.58304C13.3588 7.67421 12.6221 6.93746 11.7132 6.93746C10.8044 6.93746 10.0677 7.67421 10.0677 8.58304C10.0677 9.49186 10.8044 10.2286 11.7132 10.2286Z" fill="#123B52"/>
<path d="M7.04304 11.2364C7.95186 11.2364 8.68861 10.4996 8.68861 9.59078C8.68861 8.68196 7.95186 7.94521 7.04304 7.94521C6.13421 7.94521 5.39746 8.68196 5.39746 9.59078C5.39746 10.4996 6.13421 11.2364 7.04304 11.2364Z" fill="#123B52"/>
<path fill-rule="evenodd" clip-rule="evenodd" d="M29.6862 22.655C29.6627 22.3744 29.7405 22.0964 29.8807 21.8521C30.2489 21.2105 30.4594 20.4668 30.4594 19.6739C30.4594 17.2533 28.4973 15.291 26.0769 15.291C24.6042 15.291 23.3011 16.0175 22.5065 17.1317C22.2297 17.5198 21.7932 17.7896 21.3173 17.7615C20.292 17.7008 19.1656 17.6645 17.9381 17.6645C14.3158 17.6645 11.5742 17.9807 9.71307 18.3055C7.85085 18.6306 6.47721 20.1169 6.25697 21.9944C6.1891 22.573 6.14233 23.1609 6.14233 23.6827C6.14233 24.2045 6.1891 24.7925 6.25697 25.3711C6.47721 27.2486 7.85085 28.7349 9.71307 29.0599C11.5742 29.3848 14.3158 29.701 17.9381 29.701C21.5604 29.701 24.3021 29.3848 26.1632 29.0599C28.0254 28.7349 29.399 27.2486 29.6193 25.3711C29.6871 24.7925 29.7339 24.2045 29.7339 23.6827C29.7339 23.3596 29.716 23.011 29.6862 22.655ZM28.0598 18.7202C28.3291 18.451 28.3291 18.0144 28.0598 17.7452C27.7906 17.4759 27.354 17.4759 27.0847 17.7452L26.1778 18.6521L25.2709 17.7452C25.0016 17.4759 24.5651 17.4759 24.2958 17.7452C24.0266 18.0144 24.0266 18.451 24.2958 18.7202L25.2027 19.6272L24.2958 20.5341C24.0266 20.8033 24.0266 21.2399 24.2958 21.5092C24.5651 21.7784 25.0016 21.7784 25.2709 21.5092L26.1778 20.6022L27.0847 21.5092C27.354 21.7784 27.7906 21.7784 28.0598 21.5092C28.3291 21.2399 28.3291 20.8033 28.0598 20.5341L27.1529 19.6272L28.0598 18.7202ZM10.716 22.416C9.82746 22.416 9.10718 23.1363 9.10718 24.0248C9.10718 24.9134 9.82746 25.6336 10.716 25.6336H22.7546C23.6431 25.6336 24.3634 24.9134 24.3634 24.0248C24.3634 23.1363 23.6431 22.416 22.7546 22.416H10.716Z" fill="#123B52"/>
<path fill-rule="evenodd" clip-rule="evenodd" d="M8.04831 3.04171C6.88404 3.30874 5.96799 3.58699 5.29601 3.82056C4.86125 3.97167 4.4333 4.1391 4.01393 4.32857C3.97268 4.34789 3.93174 4.36761 3.89112 4.38773C0.928441 5.85508 -0.332079 9.42192 1.07701 12.4311C1.26483 12.8322 1.49178 13.2046 1.75146 13.5453C1.90839 13.7512 1.99109 14.0065 1.96415 14.264C1.82405 15.603 1.73642 17.0816 1.73642 18.6729C1.73642 21.9468 2.10732 24.7195 2.54335 26.8484C3.32158 30.6481 6.25641 33.5159 10.0597 34.2266C12.1299 34.6134 14.8129 34.9365 18 34.9365C21.1872 34.9365 23.8702 34.6134 25.9403 34.2266C29.7436 33.5159 32.6785 30.6481 33.4567 26.8484C33.8927 24.7195 34.2636 21.9468 34.2636 18.6729C34.2636 17.0816 34.176 15.6029 34.0359 14.2639C34.009 14.0065 34.0916 13.7511 34.2486 13.5452C34.5082 13.2046 34.7352 12.8321 34.923 12.4311C36.3514 9.38066 35.0365 5.75698 31.9861 4.32857L31.9789 4.32521L31.9699 4.32101L31.9521 4.31274L31.9124 4.29459L31.9057 4.29155C31.875 4.27769 31.8406 4.26233 31.8025 4.24563C31.7262 4.21221 31.6346 4.17329 31.5279 4.12976C31.3143 4.0427 31.0398 3.93729 30.704 3.82056C30.032 3.58699 29.116 3.30874 27.9517 3.04171C25.6198 2.50689 22.3126 2.02173 18 2.02173C13.6874 2.02173 10.3802 2.50689 8.04831 3.04171ZM4.16425 12.5993C4.42624 12.8409 4.589 13.1842 4.54245 13.5375C4.34412 15.043 4.21026 16.7654 4.21026 18.672C4.21026 21.7488 4.55888 24.3458 4.96442 26.3258C5.54269 29.1492 7.70659 31.2667 10.5395 31.7961C12.469 32.1566 14.9908 32.4617 18 32.4617C21.0092 32.4617 23.531 32.1566 25.4604 31.7961C28.2934 31.2667 30.4573 29.1492 31.0356 26.3258C31.4411 24.3458 31.7897 21.7488 31.7897 18.672C31.7897 16.7653 31.6559 15.043 31.4575 13.5375C31.411 13.1841 31.5737 12.8409 31.8357 12.5992C32.1762 12.2852 32.4627 11.9011 32.6713 11.4557C33.5325 9.61649 32.7397 7.42731 30.9005 6.56606L30.8951 6.56355L30.8894 6.56088L30.8769 6.55511L30.8477 6.5418C30.8265 6.53216 30.8015 6.521 30.7728 6.50844C30.7154 6.48331 30.6432 6.45256 30.556 6.41704C30.3817 6.34599 30.1479 6.25593 29.8539 6.15374C29.2657 5.9493 28.4379 5.69672 27.3661 5.4509C25.2206 4.95881 22.1096 4.49665 18 4.49665C13.8904 4.49665 10.7794 4.95881 8.6338 5.4509C7.56202 5.69672 6.73423 5.9493 6.14606 6.15374C5.85206 6.25593 5.6182 6.34599 5.4439 6.41704C5.35676 6.45256 5.28453 6.48331 5.22714 6.50844C5.19845 6.521 5.17347 6.53216 5.15219 6.5418L5.12305 6.55511L5.11057 6.56088L5.10484 6.56355L5.09946 6.56606C3.26023 7.42731 2.46742 9.61649 3.32867 11.4557C3.53725 11.9012 3.82372 12.2852 4.16425 12.5993Z" fill="#123B52"/>
</svg>
