<svg width="35" height="36" viewBox="0 0 35 36" fill="none" xmlns="http://www.w3.org/2000/svg">
<path fill-rule="evenodd" clip-rule="evenodd" d="M7.54831 3.04196C6.38404 3.30899 5.46799 3.58723 4.79601 3.8208C4.36125 3.97191 3.9333 4.13934 3.51393 4.32881C3.47268 4.34813 3.43174 4.36785 3.39112 4.38797C0.428441 5.85533 -0.832079 9.42216 0.577015 12.4313C0.764825 12.8324 0.991775 13.2049 1.25146 13.5455C1.40839 13.7514 1.49109 14.0068 1.46415 14.2642C1.32405 15.6032 1.23642 17.0819 1.23642 18.6732C1.23642 21.9471 1.60732 24.7197 2.04335 26.8486C2.82158 30.6483 5.75641 33.5161 9.55971 34.2268C11.6299 34.6136 14.3129 34.9368 17.5 34.9368C20.6872 34.9368 23.3702 34.6136 25.4403 34.2268C29.2436 33.5161 32.1785 30.6483 32.9567 26.8487C33.3927 24.7197 33.7636 21.9471 33.7636 18.6732C33.7636 17.0819 33.676 15.6032 33.5359 14.2642C33.509 14.0067 33.5916 13.7514 33.7486 13.5455C34.0082 13.2048 34.2352 12.8324 34.423 12.4313C35.8514 9.38091 34.5365 5.75722 31.4861 4.32881L31.4789 4.32545L31.4699 4.32126L31.4521 4.31298L31.4124 4.29483L31.4057 4.2918C31.375 4.27793 31.3406 4.26258 31.3025 4.24588C31.2262 4.21245 31.1346 4.17354 31.0279 4.13001C30.8143 4.04295 30.5398 3.93753 30.204 3.8208C29.532 3.58723 28.616 3.30899 27.4517 3.04196C25.1198 2.50713 21.8126 2.02197 17.5 2.02197C13.1874 2.02197 9.88018 2.50713 7.54831 3.04196ZM3.66425 12.5995C3.92624 12.8411 4.089 13.1844 4.04245 13.5378C3.84412 15.0433 3.71026 16.7656 3.71026 18.6722C3.71026 21.7491 4.05888 24.346 4.46442 26.3261C5.04269 29.1495 7.20659 31.267 10.0396 31.7963C11.969 32.1569 14.4908 32.462 17.5 32.462C20.5092 32.462 23.031 32.1569 24.9604 31.7963C27.7934 31.267 29.9573 29.1495 30.5356 26.3261C30.9411 24.346 31.2897 21.7491 31.2897 18.6722C31.2897 16.7656 31.1559 15.0432 30.9575 13.5377C30.911 13.1844 31.0737 12.8411 31.3357 12.5995C31.6762 12.2854 31.9627 11.9014 32.1713 11.456C33.0325 9.61673 32.2397 7.42755 30.4005 6.5663L30.3951 6.56379L30.3894 6.56113L30.3769 6.55535L30.3477 6.54204C30.3265 6.5324 30.3015 6.52125 30.2728 6.50868C30.2154 6.48355 30.1432 6.4528 30.056 6.41728C29.8817 6.34624 29.6479 6.25617 29.3539 6.15398C28.7657 5.94955 27.9379 5.69696 26.8661 5.45115C24.7206 4.95905 21.6096 4.4969 17.5 4.4969C13.3904 4.4969 10.2794 4.95905 8.1338 5.45115C7.06202 5.69696 6.23423 5.94955 5.64606 6.15398C5.35206 6.25617 5.1182 6.34624 4.9439 6.41728C4.85676 6.4528 4.78453 6.48355 4.72714 6.50868C4.69845 6.52125 4.67347 6.5324 4.65219 6.54204L4.62305 6.55535L4.61057 6.56113L4.60484 6.56379L4.59946 6.5663C2.76023 7.42755 1.96742 9.61673 2.82867 11.456C3.03725 11.9014 3.32372 12.2855 3.66425 12.5995Z" fill="#FF3E00"/>
<path d="M8.18861 9.59103C8.18861 10.4999 7.45186 11.2366 6.54304 11.2366C5.63421 11.2366 4.89746 10.4999 4.89746 9.59103C4.89746 8.6822 5.63421 7.94545 6.54304 7.94545C7.45186 7.94545 8.18861 8.6822 8.18861 9.59103Z" fill="#FF2F2F"/>
<path d="M12.8588 8.58328C12.8588 9.49211 12.1221 10.2289 11.2132 10.2289C10.3044 10.2289 9.56766 9.49211 9.56766 8.58328C9.56766 7.67445 10.3044 6.93771 11.2132 6.93771C12.1221 6.93771 12.8588 7.67445 12.8588 8.58328Z" fill="#FF8F29"/>
<path d="M17.529 8.13776C17.529 9.04659 16.7923 9.78334 15.8834 9.78334C14.9746 9.78334 14.2379 9.04659 14.2379 8.13776C14.2379 7.22894 14.9746 6.49219 15.8834 6.49219C16.7923 6.49219 17.529 7.22894 17.529 8.13776Z" fill="#25D156"/>
<path d="M29.1862 22.6558C29.1627 22.3752 29.2405 22.0971 29.3807 21.8529C29.7489 21.2112 29.9594 20.4675 29.9594 19.6746C29.9594 17.254 27.9973 15.2917 25.5769 15.2917C24.1042 15.2917 22.8011 16.0182 22.0065 17.1324C21.7297 17.5206 21.2932 17.7903 20.8173 17.7622C19.792 17.7015 18.6656 17.6652 17.4381 17.6652C13.8158 17.6652 11.0742 17.9814 9.21307 18.3063C7.35085 18.6314 5.97721 20.1176 5.75697 21.9952C5.6891 22.5737 5.64233 23.1617 5.64233 23.6835C5.64233 24.2053 5.6891 24.7933 5.75697 25.3718C5.97721 27.2493 7.35085 28.7356 9.21307 29.0607C11.0742 29.3856 13.8158 29.7017 17.4381 29.7017C21.0604 29.7017 23.8021 29.3856 25.6632 29.0607C27.5254 28.7356 28.899 27.2493 29.1193 25.3718C29.1871 24.7933 29.2339 24.2053 29.2339 23.6835C29.2339 23.3603 29.216 23.0118 29.1862 22.6558Z" fill="#00B94A"/>
<path fill-rule="evenodd" clip-rule="evenodd" d="M27.5598 18.7207C27.8291 18.4515 27.8291 18.0149 27.5598 17.7456C27.2906 17.4764 26.854 17.4764 26.5847 17.7456L25.6778 18.6526L24.7709 17.7456C24.5016 17.4764 24.0651 17.4764 23.7958 17.7456C23.5266 18.0149 23.5266 18.4515 23.7958 18.7207L24.7027 19.6276L23.7958 20.5346C23.5266 20.8038 23.5266 21.2404 23.7958 21.5096C24.0651 21.7789 24.5016 21.7789 24.7709 21.5096L25.6778 20.6027L26.5847 21.5096C26.854 21.7789 27.2906 21.7789 27.5598 21.5096C27.8291 21.2404 27.8291 20.8038 27.5598 20.5346L26.6529 19.6276L27.5598 18.7207ZM10.216 22.4165C9.32746 22.4165 8.60718 23.1368 8.60718 24.0253C8.60718 24.9138 9.32746 25.6341 10.216 25.6341H22.2546C23.1431 25.6341 23.8634 24.9138 23.8634 24.0253C23.8634 23.1368 23.1431 22.4165 22.2546 22.4165H10.216Z" fill="#A3FFA2"/>
</svg>
