<svg width="136" height="36" viewBox="0 0 136 36" fill="none" xmlns="http://www.w3.org/2000/svg">
<path d="M52.8756 30.5395C51.4156 30.5395 50.0871 30.3763 48.8901 30.0499C47.6931 29.7234 46.5143 29.1566 45.3535 28.3496V23.5615H48.4277L48.8493 26.3772C49.2574 26.7218 49.8196 27.0029 50.536 27.2206C51.2524 27.4291 52.0323 27.5334 52.8756 27.5334C53.592 27.5334 54.1951 27.4337 54.6848 27.2342C55.1835 27.0347 55.5598 26.7535 55.8137 26.3908C56.0767 26.019 56.2082 25.5837 56.2082 25.085C56.2082 24.6134 56.0903 24.1963 55.8546 23.8336C55.6278 23.4618 55.247 23.1262 54.712 22.827C54.186 22.5187 53.4696 22.224 52.5628 21.9428C50.994 21.4804 49.6927 20.9771 48.6589 20.433C47.6342 19.8798 46.8634 19.2224 46.3465 18.4606C45.8387 17.6898 45.5848 16.7649 45.5848 15.6857C45.5848 14.6157 45.8795 13.6726 46.4689 12.8564C47.0674 12.0312 47.8926 11.3829 48.9445 10.9113C49.9965 10.4398 51.2116 10.1949 52.59 10.1768C54.1135 10.1586 55.4601 10.34 56.6299 10.7209C57.8088 11.1017 58.8244 11.6322 59.6768 12.3123V16.7739H56.6979L56.181 14.0535C55.8364 13.8358 55.3694 13.6454 54.78 13.4822C54.1996 13.3189 53.5376 13.2373 52.794 13.2373C52.1592 13.2373 51.597 13.3325 51.1073 13.523C50.6267 13.7134 50.2458 13.99 49.9647 14.3527C49.6836 14.7154 49.543 15.1552 49.543 15.6721C49.543 16.1165 49.6655 16.5064 49.9103 16.8419C50.1552 17.1684 50.5632 17.4813 51.1345 17.7805C51.7149 18.0707 52.5129 18.3835 53.5285 18.7191C55.714 19.3266 57.369 20.1292 58.4934 21.1267C59.627 22.1242 60.1937 23.4346 60.1937 25.0578C60.1937 26.1822 59.8899 27.1571 59.2824 27.9823C58.6748 28.7984 57.8224 29.4287 56.7251 29.873C55.6278 30.3174 54.3447 30.5395 52.8756 30.5395Z" fill="#123B52"/>
<path d="M69.6066 30.2539L63.2406 13.0605L61.4723 12.8428V10.4488H69.3481V12.8428L67.5662 13.1149L71.4565 24.7993L71.7557 25.8875H71.8374L72.123 24.8265L76.0133 13.1149L73.9321 12.8428V10.4488H81.4406V12.8428L79.6451 13.0605L73.6737 30.2539H69.6066Z" fill="#123B52"/>
<path d="M88.0817 30.5395C86.6308 30.5395 85.3839 30.2222 84.3411 29.5874C83.2982 28.9526 82.5002 28.073 81.9471 26.9485C81.3939 25.815 81.1173 24.5137 81.1173 23.0446V22.759C81.1173 21.299 81.3939 20.0068 81.9471 18.8823C82.5002 17.7488 83.2937 16.8646 84.3275 16.2298C85.3703 15.586 86.6127 15.2641 88.0545 15.2641C89.5145 15.2641 90.7614 15.586 91.7952 16.2298C92.829 16.8646 93.6224 17.7442 94.1756 18.8687C94.7288 19.9932 95.0054 21.2899 95.0054 22.759V23.0446C95.0054 24.5137 94.7288 25.815 94.1756 26.9485C93.6224 28.073 92.829 28.9526 91.7952 29.5874C90.7614 30.2222 89.5236 30.5395 88.0817 30.5395ZM88.0817 27.4926C88.7709 27.4926 89.3332 27.3067 89.7684 26.9349C90.2037 26.5631 90.5256 26.0462 90.7342 25.3842C90.9428 24.7132 91.0471 23.9333 91.0471 23.0446V22.759C91.0471 21.8884 90.9428 21.1222 90.7342 20.4602C90.5256 19.7891 90.1992 19.2677 89.7548 18.8959C89.3196 18.515 88.7528 18.3246 88.0545 18.3246C87.3744 18.3246 86.8122 18.515 86.3678 18.8959C85.9235 19.2677 85.597 19.7891 85.3885 20.4602C85.189 21.1222 85.0892 21.8884 85.0892 22.759V23.0446C85.0892 23.9333 85.189 24.7132 85.3885 25.3842C85.597 26.0553 85.9235 26.5767 86.3678 26.9485C86.8122 27.3112 87.3835 27.4926 88.0817 27.4926Z" fill="#123B52"/>
<path d="M101.711 30.5395C100.251 30.5395 99.0906 30.1496 98.2291 29.3697C97.3676 28.5808 96.9369 27.5107 96.9369 26.1596C96.9369 25.2346 97.1863 24.423 97.685 23.7247C98.1928 23.0265 98.9364 22.4779 99.9158 22.0789C100.904 21.6799 102.119 21.4804 103.561 21.4804H105.506V20.3922C105.506 19.6848 105.298 19.1135 104.881 18.6783C104.473 18.2339 103.856 18.0117 103.031 18.0117C102.605 18.0117 102.224 18.0662 101.888 18.175C101.553 18.2747 101.244 18.4198 100.963 18.6103L100.65 20.5554H97.7938L97.7394 16.7331C98.5102 16.2978 99.3445 15.9442 100.242 15.6721C101.14 15.4001 102.142 15.2641 103.248 15.2641C105.171 15.2641 106.69 15.7129 107.805 16.6107C108.921 17.4994 109.478 18.7735 109.478 20.433V26.4996C109.478 26.6991 109.478 26.8986 109.478 27.0981C109.487 27.2886 109.505 27.4745 109.533 27.6558L111.07 27.8735V30.2539H106.146C106.046 30 105.946 29.7279 105.846 29.4378C105.747 29.1476 105.674 28.8574 105.629 28.5672C105.157 29.1657 104.6 29.6463 103.956 30.0091C103.321 30.3627 102.573 30.5395 101.711 30.5395ZM102.772 27.6014C103.325 27.6014 103.851 27.479 104.35 27.2342C104.849 26.9803 105.234 26.6493 105.506 26.2412V23.9152H103.548C102.677 23.9152 102.015 24.1147 101.562 24.5137C101.117 24.9127 100.895 25.3933 100.895 25.9555C100.895 26.4815 101.058 26.8896 101.385 27.1798C101.72 27.4609 102.183 27.6014 102.772 27.6014Z" fill="#123B52"/>
<path d="M118.796 30.5395C117.699 30.5395 116.674 30.4353 115.722 30.2267C114.779 30.0181 113.872 29.7189 113.001 29.3289L112.961 25.1666H115.722L116.252 27.2886C116.561 27.4427 116.896 27.5652 117.259 27.6558C117.631 27.7465 118.052 27.7919 118.524 27.7919C119.413 27.7919 120.038 27.6468 120.401 27.3566C120.764 27.0664 120.945 26.7037 120.945 26.2684C120.945 25.8603 120.75 25.5021 120.36 25.1938C119.979 24.8764 119.213 24.5998 118.061 24.3641C116.32 24.0013 115.037 23.4391 114.212 22.6774C113.387 21.9156 112.974 20.9408 112.974 19.7529C112.974 18.9367 113.178 18.1931 113.586 17.5221C114.003 16.851 114.634 16.3114 115.477 15.9034C116.329 15.4953 117.418 15.2913 118.742 15.2913C119.848 15.2913 120.859 15.4001 121.775 15.6177C122.7 15.8263 123.475 16.1029 124.101 16.4475L124.142 20.4738H121.394L120.972 18.5422C120.727 18.3609 120.437 18.2249 120.102 18.1342C119.775 18.0435 119.403 17.9981 118.986 17.9981C118.288 17.9981 117.753 18.1387 117.381 18.4198C117.009 18.7009 116.824 19.0637 116.824 19.508C116.824 19.7619 116.887 19.9977 117.014 20.2153C117.15 20.433 117.413 20.637 117.803 20.8274C118.193 21.0179 118.76 21.1992 119.503 21.3715C121.326 21.7887 122.654 22.3464 123.489 23.0446C124.323 23.7338 124.74 24.7041 124.74 25.9555C124.74 27.3248 124.241 28.4312 123.244 29.2745C122.255 30.1179 120.773 30.5395 118.796 30.5395Z" fill="#123B52"/>
<path d="M132.33 30.5395C130.961 30.5395 129.905 30.1632 129.161 29.4105C128.426 28.6579 128.059 27.4654 128.059 25.8331V18.3246H126.032V15.5361H128.059V11.9315H132.017V15.5361H134.724V18.3246H132.017V25.8195C132.017 26.3908 132.135 26.7989 132.371 27.0437C132.616 27.2886 132.947 27.411 133.364 27.411C133.591 27.411 133.827 27.3974 134.071 27.3702C134.325 27.3339 134.543 27.2976 134.724 27.2614L135.064 30.1315C134.656 30.2494 134.212 30.3446 133.731 30.4171C133.26 30.4987 132.793 30.5395 132.33 30.5395Z" fill="#123B52"/>
<path fill-rule="evenodd" clip-rule="evenodd" d="M8.09096 1.98719C6.85294 2.27114 5.87885 2.56701 5.1643 2.81537C4.702 2.97606 4.24694 3.1541 3.801 3.35557C3.75713 3.37611 3.7136 3.39708 3.67041 3.41848C0.520036 4.97879 -0.82034 8.77159 0.678023 11.9714C0.877732 12.3979 1.11906 12.7939 1.3952 13.1562C1.56207 13.3751 1.65001 13.6467 1.62136 13.9204C1.47238 15.3442 1.37921 16.9166 1.37921 18.6087C1.37921 22.09 1.7736 25.0383 2.23725 27.3021C3.06478 31.3425 6.18555 34.392 10.2298 35.1477C12.4311 35.559 15.2841 35.9026 18.6731 35.9026C22.0622 35.9026 24.9152 35.559 27.1165 35.1477C31.1607 34.392 34.2815 31.3425 35.109 27.3021C35.5727 25.0383 35.9671 22.09 35.9671 18.6087C35.9671 16.9165 35.8739 15.3442 35.7249 13.9204C35.6963 13.6466 35.7842 13.375 35.9511 13.1561C36.2272 12.7939 36.4685 12.3979 36.6682 11.9714C38.1871 8.72773 36.7889 4.87448 33.5452 3.35557L33.5376 3.352L33.528 3.34754L33.5091 3.33874L33.4668 3.31944L33.4597 3.31621C33.4272 3.30147 33.3906 3.28514 33.35 3.26738C33.2689 3.23184 33.1715 3.19046 33.058 3.14417C32.8309 3.0516 32.539 2.9395 32.1819 2.81537C31.4674 2.56701 30.4933 2.27114 29.2553 1.98719C26.7757 1.41848 23.2589 0.902588 18.6731 0.902588C14.0873 0.902588 10.5706 1.41848 8.09096 1.98719ZM3.96084 12.1502C4.23943 12.4072 4.4125 12.7722 4.363 13.1479C4.15211 14.7488 4.00976 16.5803 4.00976 18.6077C4.00976 21.8794 4.38047 24.6409 4.81171 26.7464C5.42661 29.7486 7.7276 32.0003 10.74 32.5632C12.7918 32.9466 15.4733 33.271 18.6731 33.271C21.8729 33.271 24.5545 32.9466 26.6062 32.5632C29.6186 32.0003 31.9196 29.7487 32.5345 26.7464C32.9657 24.6409 33.3365 21.8794 33.3365 18.6077C33.3365 16.5802 33.1941 14.7488 32.9832 13.1479C32.9337 12.7722 33.1068 12.4071 33.3854 12.1502C33.7474 11.8163 34.052 11.4079 34.2738 10.9342C35.1897 8.97849 34.3466 6.65062 32.3909 5.73481L32.3851 5.73214L32.3791 5.72931L32.3658 5.72316L32.3348 5.70901C32.3122 5.69876 32.2856 5.6869 32.2551 5.67354C32.1941 5.64682 32.1173 5.61412 32.0246 5.57635C31.8393 5.5008 31.5906 5.40503 31.278 5.29637C30.6525 5.07898 29.7723 4.8104 28.6326 4.54901C26.3511 4.02573 23.043 3.5343 18.6731 3.5343C14.3031 3.5343 10.995 4.02573 8.71354 4.54901C7.57386 4.8104 6.69363 5.07898 6.0682 5.29637C5.75558 5.40503 5.5069 5.5008 5.32156 5.57635C5.2289 5.61412 5.15209 5.64682 5.09107 5.67354C5.06056 5.6869 5.034 5.69876 5.01137 5.70901L4.98039 5.72316L4.96711 5.72931L4.96102 5.73214L4.9553 5.73481C2.99955 6.65062 2.15651 8.97849 3.07232 10.9342C3.29412 11.4079 3.59874 11.8163 3.96084 12.1502Z" fill="#FF3E00"/>
<path d="M8.77187 8.95116C8.77187 9.91756 7.98844 10.701 7.02204 10.701C6.05564 10.701 5.27222 9.91756 5.27222 8.95116C5.27222 7.98476 6.05564 7.20134 7.02204 7.20134C7.98844 7.20134 8.77187 7.98476 8.77187 8.95116Z" fill="#FF2F2F"/>
<path d="M13.7379 7.87957C13.7379 8.84598 12.9545 9.6294 11.9881 9.6294C11.0217 9.6294 10.2383 8.84598 10.2383 7.87957C10.2383 6.91317 11.0217 6.12975 11.9881 6.12975C12.9545 6.12975 13.7379 6.91317 13.7379 7.87957Z" fill="#FF8F29"/>
<path d="M18.704 7.40583C18.704 8.37223 17.9206 9.15566 16.9542 9.15566C15.9878 9.15566 15.2043 8.37223 15.2043 7.40583C15.2043 6.43943 15.9878 5.65601 16.9542 5.65601C17.9206 5.65601 18.704 6.43943 18.704 7.40583Z" fill="#25D156"/>
<path d="M31.0996 22.8435C31.0746 22.5451 31.1574 22.2494 31.3064 21.9897C31.6979 21.3074 31.9218 20.5166 31.9218 19.6735C31.9218 17.0995 29.8354 15.0129 27.2617 15.0129C25.6957 15.0129 24.3101 15.7854 23.4651 16.9702C23.1707 17.383 22.7066 17.6698 22.2005 17.6399C21.1103 17.5754 19.9126 17.5368 18.6073 17.5368C14.7555 17.5368 11.8401 17.873 9.86116 18.2184C7.88096 18.5641 6.4203 20.1446 6.18611 22.141C6.11394 22.7562 6.06421 23.3814 6.06421 23.9363C6.06421 24.4912 6.11394 25.1164 6.18611 25.7316C6.4203 27.728 7.88097 29.3085 9.86116 29.6542C11.8401 29.9996 14.7555 30.3358 18.6073 30.3358C22.459 30.3358 25.3744 29.9996 27.3534 29.6542C29.3336 29.3085 30.7943 27.728 31.0285 25.7316C31.1006 25.1164 31.1504 24.4912 31.1504 23.9363C31.1504 23.5927 31.1313 23.222 31.0996 22.8435Z" fill="#00B94A"/>
<path fill-rule="evenodd" clip-rule="evenodd" d="M29.3704 18.6593C29.6567 18.373 29.6567 17.9088 29.3704 17.6225C29.084 17.3361 28.6198 17.3361 28.3335 17.6225L27.3691 18.5868L26.4048 17.6225C26.1184 17.3361 25.6542 17.3361 25.3679 17.6225C25.0816 17.9088 25.0816 18.373 25.3679 18.6593L26.3323 19.6237L25.3679 20.5881C25.0816 20.8744 25.0816 21.3386 25.3679 21.6249C25.6542 21.9112 26.1184 21.9112 26.4048 21.6249L27.3691 20.6605L28.3335 21.6249C28.6198 21.9112 29.084 21.9112 29.3704 21.6249C29.6567 21.3386 29.6567 20.8744 29.3704 20.5881L28.406 19.6237L29.3704 18.6593ZM10.9278 22.5892C9.98296 22.5892 9.21704 23.3551 9.21704 24.2999C9.21704 25.2447 9.98296 26.0106 10.9278 26.0106H23.7291C24.6739 26.0106 25.4398 25.2447 25.4398 24.2999C25.4398 23.3551 24.6739 22.5892 23.7291 22.5892H10.9278Z" fill="#A3FFA2"/>
</svg>
