<svg width="136" height="36" viewBox="0 0 136 36" fill="none" xmlns="http://www.w3.org/2000/svg">
<path d="M52.8756 30.2949C51.4156 30.2949 50.0871 30.1317 48.8901 29.8052C47.6931 29.4788 46.5143 28.912 45.3535 28.1049V23.3169H48.4277L48.8493 26.1326C49.2574 26.4772 49.8196 26.7583 50.536 26.9759C51.2524 27.1845 52.0323 27.2888 52.8756 27.2888C53.592 27.2888 54.1951 27.189 54.6848 26.9895C55.1835 26.79 55.5598 26.5089 55.8137 26.1462C56.0767 25.7744 56.2082 25.3391 56.2082 24.8404C56.2082 24.3688 56.0903 23.9517 55.8546 23.5889C55.6278 23.2171 55.247 22.8816 54.712 22.5824C54.186 22.274 53.4696 21.9793 52.5628 21.6982C50.994 21.2357 49.6927 20.7324 48.6589 20.1883C47.6342 19.6352 46.8634 18.9777 46.3465 18.216C45.8387 17.4452 45.5848 16.5202 45.5848 15.4411C45.5848 14.3711 45.8795 13.428 46.4689 12.6118C47.0674 11.7866 47.8926 11.1382 48.9445 10.6667C49.9965 10.1951 51.2116 9.95028 52.59 9.93214C54.1135 9.91401 55.4601 10.0954 56.6299 10.4762C57.8088 10.8571 58.8244 11.3876 59.6768 12.0677V16.5293H56.6979L56.181 13.8088C55.8364 13.5912 55.3694 13.4008 54.78 13.2375C54.1996 13.0743 53.5376 12.9927 52.794 12.9927C52.1592 12.9927 51.597 13.0879 51.1073 13.2783C50.6267 13.4688 50.2458 13.7453 49.9647 14.1081C49.6836 14.4708 49.543 14.9106 49.543 15.4275C49.543 15.8719 49.6655 16.2618 49.9103 16.5973C50.1552 16.9238 50.5632 17.2366 51.1345 17.5359C51.7149 17.8261 52.5129 18.1389 53.5285 18.4744C55.714 19.082 57.369 19.8846 58.4934 20.8821C59.627 21.8796 60.1937 23.1899 60.1937 24.8132C60.1937 25.9376 59.8899 26.9125 59.2824 27.7377C58.6748 28.5538 57.8224 29.1841 56.7251 29.6284C55.6278 30.0727 54.3447 30.2949 52.8756 30.2949Z" fill="white"/>
<path d="M69.6066 30.0093L63.2406 12.8159L61.4723 12.5982V10.2042H69.3481V12.5982L67.5662 12.8703L71.4565 24.5547L71.7557 25.6429H71.8374L72.123 24.5819L76.0133 12.8703L73.9321 12.5982V10.2042H81.4406V12.5982L79.6451 12.8159L73.6737 30.0093H69.6066Z" fill="white"/>
<path d="M88.0817 30.2949C86.6308 30.2949 85.3839 29.9775 84.3411 29.3427C83.2982 28.708 82.5002 27.8283 81.9471 26.7039C81.3939 25.5704 81.1173 24.2691 81.1173 22.8V22.5144C81.1173 21.0544 81.3939 19.7621 81.9471 18.6377C82.5002 17.5041 83.2937 16.62 84.3275 15.9852C85.3703 15.3414 86.6127 15.0194 88.0545 15.0194C89.5145 15.0194 90.7614 15.3414 91.7952 15.9852C92.829 16.62 93.6224 17.4996 94.1756 18.6241C94.7288 19.7485 95.0054 21.0453 95.0054 22.5144V22.8C95.0054 24.2691 94.7288 25.5704 94.1756 26.7039C93.6224 27.8283 92.829 28.708 91.7952 29.3427C90.7614 29.9775 89.5236 30.2949 88.0817 30.2949ZM88.0817 27.248C88.7709 27.248 89.3332 27.0621 89.7684 26.6903C90.2037 26.3185 90.5256 25.8016 90.7342 25.1396C90.9428 24.4686 91.0471 23.6887 91.0471 22.8V22.5144C91.0471 21.6438 90.9428 20.8775 90.7342 20.2155C90.5256 19.5445 90.1992 19.0231 89.7548 18.6513C89.3196 18.2704 88.7528 18.08 88.0545 18.08C87.3744 18.08 86.8122 18.2704 86.3678 18.6513C85.9235 19.0231 85.597 19.5445 85.3885 20.2155C85.189 20.8775 85.0892 21.6438 85.0892 22.5144V22.8C85.0892 23.6887 85.189 24.4686 85.3885 25.1396C85.597 25.8107 85.9235 26.3321 86.3678 26.7039C86.8122 27.0666 87.3835 27.248 88.0817 27.248Z" fill="white"/>
<path d="M101.711 30.2949C100.251 30.2949 99.0906 29.905 98.2291 29.1251C97.3676 28.3362 96.9369 27.2661 96.9369 25.9149C96.9369 24.99 97.1863 24.1784 97.685 23.4801C98.1928 22.7819 98.9364 22.2332 99.9158 21.8342C100.904 21.4352 102.119 21.2357 103.561 21.2357H105.506V20.1475C105.506 19.4402 105.298 18.8689 104.881 18.4336C104.473 17.9893 103.856 17.7671 103.031 17.7671C102.605 17.7671 102.224 17.8215 101.888 17.9303C101.553 18.0301 101.244 18.1752 100.963 18.3656L100.65 20.3108H97.7938L97.7394 16.4885C98.5102 16.0532 99.3445 15.6996 100.242 15.4275C101.14 15.1555 102.142 15.0194 103.248 15.0194C105.171 15.0194 106.69 15.4683 107.805 16.3661C108.921 17.2548 109.478 18.5289 109.478 20.1883V26.255C109.478 26.4545 109.478 26.654 109.478 26.8535C109.487 27.0439 109.505 27.2298 109.533 27.4112L111.07 27.6288V30.0093H106.146C106.046 29.7554 105.946 29.4833 105.846 29.1931C105.747 28.9029 105.674 28.6128 105.629 28.3226C105.157 28.9211 104.6 29.4017 103.956 29.7644C103.321 30.1181 102.573 30.2949 101.711 30.2949ZM102.772 27.3568C103.325 27.3568 103.851 27.2344 104.35 26.9895C104.849 26.7356 105.234 26.4046 105.506 25.9966V23.6706H103.548C102.677 23.6706 102.015 23.8701 101.562 24.2691C101.117 24.6681 100.895 25.1487 100.895 25.7109C100.895 26.2369 101.058 26.6449 101.385 26.9351C101.72 27.2162 102.183 27.3568 102.772 27.3568Z" fill="white"/>
<path d="M118.796 30.2949C117.699 30.2949 116.674 30.1906 115.722 29.9821C114.779 29.7735 113.872 29.4742 113.001 29.0843L112.961 24.922H115.722L116.252 27.0439C116.561 27.1981 116.896 27.3205 117.259 27.4112C117.631 27.5019 118.052 27.5472 118.524 27.5472C119.413 27.5472 120.038 27.4021 120.401 27.112C120.764 26.8218 120.945 26.459 120.945 26.0238C120.945 25.6157 120.75 25.2575 120.36 24.9492C119.979 24.6318 119.213 24.3552 118.061 24.1194C116.32 23.7567 115.037 23.1945 114.212 22.4327C113.387 21.671 112.974 20.6962 112.974 19.5082C112.974 18.6921 113.178 17.9485 113.586 17.2774C114.003 16.6064 114.634 16.0668 115.477 15.6587C116.329 15.2507 117.418 15.0466 118.742 15.0466C119.848 15.0466 120.859 15.1555 121.775 15.3731C122.7 15.5817 123.475 15.8583 124.101 16.2028L124.142 20.2292H121.394L120.972 18.2976C120.727 18.1162 120.437 17.9802 120.102 17.8895C119.775 17.7989 119.403 17.7535 118.986 17.7535C118.288 17.7535 117.753 17.8941 117.381 18.1752C117.009 18.4563 116.824 18.819 116.824 19.2634C116.824 19.5173 116.887 19.7531 117.014 19.9707C117.15 20.1883 117.413 20.3924 117.803 20.5828C118.193 20.7732 118.76 20.9546 119.503 21.1269C121.326 21.544 122.654 22.1017 123.489 22.8C124.323 23.4892 124.74 24.4595 124.74 25.7109C124.74 27.0802 124.241 28.1865 123.244 29.0299C122.255 29.8732 120.773 30.2949 118.796 30.2949Z" fill="white"/>
<path d="M132.33 30.2949C130.961 30.2949 129.905 29.9186 129.161 29.1659C128.426 28.4133 128.059 27.2208 128.059 25.5885V18.08H126.032V15.2915H128.059V11.6869H132.017V15.2915H134.724V18.08H132.017V25.5749C132.017 26.1462 132.135 26.5543 132.371 26.7991C132.616 27.0439 132.947 27.1664 133.364 27.1664C133.591 27.1664 133.827 27.1528 134.071 27.1256C134.325 27.0893 134.543 27.053 134.724 27.0167L135.064 29.8868C134.656 30.0047 134.212 30.0999 133.731 30.1725C133.26 30.2541 132.793 30.2949 132.33 30.2949Z" fill="white"/>
<path fill-rule="evenodd" clip-rule="evenodd" d="M8.09096 1.74256C6.85294 2.02651 5.87885 2.32238 5.1643 2.57075C4.702 2.73143 4.24694 2.90947 3.801 3.11094C3.75713 3.13148 3.7136 3.15246 3.67041 3.17385C0.520036 4.73417 -0.82034 8.52697 0.678023 11.7268C0.877732 12.1533 1.11906 12.5493 1.3952 12.9116C1.56207 13.1305 1.65001 13.402 1.62136 13.6758C1.47238 15.0996 1.37921 16.6719 1.37921 18.364C1.37921 21.8453 1.7736 24.7937 2.23725 27.0575C3.06478 31.0979 6.18555 34.1473 10.2298 34.903C12.4311 35.3144 15.2841 35.658 18.6731 35.658C22.0622 35.658 24.9152 35.3144 27.1165 34.903C31.1607 34.1473 34.2815 31.0979 35.109 27.0575C35.5727 24.7937 35.9671 21.8453 35.9671 18.364C35.9671 16.6719 35.8739 15.0995 35.7249 13.6757C35.6963 13.402 35.7842 13.1304 35.9511 12.9115C36.2272 12.5493 36.4685 12.1532 36.6682 11.7268C38.1871 8.4831 36.7889 4.62985 33.5452 3.11094L33.5376 3.10737L33.528 3.10291L33.5091 3.09411L33.4668 3.07481L33.4597 3.07158C33.4272 3.05684 33.3906 3.04051 33.35 3.02275C33.2689 2.98721 33.1715 2.94583 33.058 2.89954C32.8309 2.80697 32.539 2.69487 32.1819 2.57075C31.4674 2.32238 30.4933 2.02651 29.2553 1.74256C26.7757 1.17385 23.2589 0.657959 18.6731 0.657959C14.0873 0.657959 10.5706 1.17385 8.09096 1.74256ZM16.9542 8.91103C17.9206 8.91103 18.704 8.1276 18.704 7.1612C18.704 6.1948 17.9206 5.41137 16.9542 5.41137C15.9878 5.41137 15.2044 6.1948 15.2044 7.1612C15.2044 8.1276 15.9878 8.91103 16.9542 8.91103ZM13.738 7.63494C13.738 8.60134 12.9546 9.38477 11.9882 9.38477C11.0218 9.38477 10.2383 8.60134 10.2383 7.63494C10.2383 6.66854 11.0218 5.88512 11.9882 5.88512C12.9546 5.88512 13.738 6.66854 13.738 7.63494ZM8.77192 8.70653C8.77192 9.67293 7.9885 10.4564 7.0221 10.4564C6.05569 10.4564 5.27227 9.67293 5.27227 8.70653C5.27227 7.74013 6.05569 6.95671 7.0221 6.95671C7.9885 6.95671 8.77192 7.74013 8.77192 8.70653ZM31.0996 22.5989C31.0746 22.3005 31.1573 22.0048 31.3064 21.7451C31.6979 21.0628 31.9217 20.272 31.9217 19.4289C31.9217 16.8549 29.8353 14.7683 27.2616 14.7683C25.6956 14.7683 24.31 15.5408 23.4651 16.7256C23.1707 17.1383 22.7066 17.4252 22.2005 17.3953C21.1103 17.3308 19.9125 17.2922 18.6072 17.2922C14.7555 17.2922 11.8401 17.6284 9.86112 17.9738C7.88092 18.3195 6.42026 19.8999 6.18606 21.8964C6.1139 22.5116 6.06417 23.1368 6.06417 23.6917C6.06417 24.2465 6.1139 24.8718 6.18606 25.487C6.42026 27.4834 7.88092 29.0639 9.86112 29.4095C11.8401 29.755 14.7555 30.0912 18.6072 30.0912C22.459 30.0912 25.3744 29.755 27.3534 29.4095C29.3336 29.0639 30.7942 27.4834 31.0284 25.487C31.1006 24.8718 31.1503 24.2465 31.1503 23.6917C31.1503 23.348 31.1312 22.9774 31.0996 22.5989ZM29.3704 17.3778C29.6567 17.6641 29.6567 18.1283 29.3704 18.4146L28.4061 19.379L29.3704 20.3434C29.6567 20.6297 29.6567 21.0939 29.3704 21.3803C29.0841 21.6666 28.6199 21.6666 28.3336 21.3803L27.3692 20.4159L26.4048 21.3802C26.1185 21.6666 25.6543 21.6666 25.368 21.3802C25.0816 21.0939 25.0816 20.6297 25.368 20.3434L26.3323 19.379L25.368 18.4146C25.0816 18.1283 25.0816 17.6641 25.368 17.3778C25.6543 17.0915 26.1185 17.0915 26.4048 17.3778L27.3692 18.3422L28.3336 17.3778C28.6199 17.0915 29.0841 17.0915 29.3704 17.3778ZM9.2171 24.0552C9.2171 23.1104 9.98302 22.3445 10.9278 22.3445H23.7291C24.6739 22.3445 25.4399 23.1104 25.4399 24.0552C25.4399 25 24.6739 25.766 23.7291 25.766H10.9278C9.98302 25.766 9.2171 25 9.2171 24.0552Z" fill="white"/>
</svg>
