<svg width="136" height="35" viewBox="0 0 136 35" fill="none" xmlns="http://www.w3.org/2000/svg">
<path d="M52.8756 29.637C51.4156 29.637 50.0871 29.4737 48.8901 29.1473C47.6931 28.8208 46.5143 28.254 45.3535 27.447V22.6589H48.4277L48.8493 25.4746C49.2574 25.8192 49.8196 26.1003 50.536 26.318C51.2524 26.5265 52.0323 26.6308 52.8756 26.6308C53.592 26.6308 54.1951 26.5311 54.6848 26.3316C55.1835 26.1321 55.5598 25.851 55.8137 25.4882C56.0767 25.1164 56.2082 24.6812 56.2082 24.1824C56.2082 23.7109 56.0903 23.2937 55.8546 22.931C55.6278 22.5592 55.247 22.2237 54.712 21.9244C54.186 21.6161 53.4696 21.3214 52.5628 21.0402C50.994 20.5778 49.6927 20.0745 48.6589 19.5304C47.6342 18.9772 46.8634 18.3198 46.3465 17.558C45.8387 16.7872 45.5848 15.8623 45.5848 14.7832C45.5848 13.7131 45.8795 12.77 46.4689 11.9539C47.0674 11.1286 47.8926 10.4803 48.9445 10.0087C49.9965 9.53717 51.2116 9.29232 52.59 9.27419C54.1135 9.25605 55.4601 9.43741 56.6299 9.81828C57.8088 10.1991 58.8244 10.7296 59.6768 11.4098V15.8713H56.6979L56.181 13.1509C55.8364 12.9332 55.3694 12.7428 54.78 12.5796C54.1996 12.4163 53.5376 12.3347 52.794 12.3347C52.1592 12.3347 51.597 12.4299 51.1073 12.6204C50.6267 12.8108 50.2458 13.0874 49.9647 13.4501C49.6836 13.8128 49.543 14.2527 49.543 14.7695C49.543 15.2139 49.6655 15.6038 49.9103 15.9394C50.1552 16.2658 50.5632 16.5787 51.1345 16.8779C51.7149 17.1681 52.5129 17.481 53.5285 17.8165C55.714 18.4241 57.369 19.2266 58.4934 20.2241C59.627 21.2216 60.1937 22.532 60.1937 24.1552C60.1937 25.2797 59.8899 26.2545 59.2824 27.0797C58.6748 27.8959 57.8224 28.5261 56.7251 28.9704C55.6278 29.4148 54.3447 29.637 52.8756 29.637Z" fill="#FF3E00"/>
<path d="M69.6066 29.3513L63.2406 12.1579L61.4723 11.9403V9.54623H69.3481V11.9403L67.5662 12.2123L71.4565 23.8967L71.7557 24.9849H71.8374L72.123 23.924L76.0133 12.2123L73.9321 11.9403V9.54623H81.4406V11.9403L79.6451 12.1579L73.6737 29.3513H69.6066Z" fill="#FF3E00"/>
<path d="M88.0817 29.637C86.6308 29.637 85.3839 29.3196 84.3411 28.6848C83.2982 28.05 82.5002 27.1704 81.9471 26.0459C81.3939 24.9124 81.1173 23.6111 81.1173 22.142V21.8564C81.1173 20.3964 81.3939 19.1042 81.9471 17.9797C82.5002 16.8462 83.2937 15.962 84.3275 15.3272C85.3703 14.6834 86.6127 14.3615 88.0545 14.3615C89.5145 14.3615 90.7614 14.6834 91.7952 15.3272C92.829 15.962 93.6224 16.8416 94.1756 17.9661C94.7288 19.0906 95.0054 20.3873 95.0054 21.8564V22.142C95.0054 23.6111 94.7288 24.9124 94.1756 26.0459C93.6224 27.1704 92.829 28.05 91.7952 28.6848C90.7614 29.3196 89.5236 29.637 88.0817 29.637ZM88.0817 26.59C88.7709 26.59 89.3332 26.4041 89.7684 26.0323C90.2037 25.6605 90.5256 25.1436 90.7342 24.4817C90.9428 23.8106 91.0471 23.0307 91.0471 22.142V21.8564C91.0471 20.9858 90.9428 20.2196 90.7342 19.5576C90.5256 18.8865 90.1992 18.3651 89.7548 17.9933C89.3196 17.6124 88.7528 17.422 88.0545 17.422C87.3744 17.422 86.8122 17.6124 86.3678 17.9933C85.9235 18.3651 85.597 18.8865 85.3885 19.5576C85.189 20.2196 85.0892 20.9858 85.0892 21.8564V22.142C85.0892 23.0307 85.189 23.8106 85.3885 24.4817C85.597 25.1527 85.9235 25.6741 86.3678 26.0459C86.8122 26.4087 87.3835 26.59 88.0817 26.59Z" fill="#FF3E00"/>
<path d="M101.711 29.637C100.251 29.637 99.0906 29.247 98.2291 28.4672C97.3676 27.6782 96.9369 26.6082 96.9369 25.257C96.9369 24.332 97.1863 23.5204 97.685 22.8222C98.1928 22.1239 98.9364 21.5753 99.9158 21.1763C100.904 20.7773 102.119 20.5778 103.561 20.5778H105.506V19.4896C105.506 18.7823 105.298 18.211 104.881 17.7757C104.473 17.3313 103.856 17.1092 103.031 17.1092C102.605 17.1092 102.224 17.1636 101.888 17.2724C101.553 17.3721 101.244 17.5172 100.963 17.7077L100.65 19.6528H97.7938L97.7394 15.8305C98.5102 15.3953 99.3445 15.0416 100.242 14.7695C101.14 14.4975 102.142 14.3615 103.248 14.3615C105.171 14.3615 106.69 14.8104 107.805 15.7081C108.921 16.5968 109.478 17.8709 109.478 19.5304V25.597C109.478 25.7965 109.478 25.9961 109.478 26.1956C109.487 26.386 109.505 26.5719 109.533 26.7533L111.07 26.9709V29.3513H106.146C106.046 29.0974 105.946 28.8253 105.846 28.5352C105.747 28.245 105.674 27.9548 105.629 27.6646C105.157 28.2631 104.6 28.7437 103.956 29.1065C103.321 29.4601 102.573 29.637 101.711 29.637ZM102.772 26.6988C103.325 26.6988 103.851 26.5764 104.35 26.3316C104.849 26.0777 105.234 25.7467 105.506 25.3386V23.0126H103.548C102.677 23.0126 102.015 23.2121 101.562 23.6111C101.117 24.0101 100.895 24.4907 100.895 25.053C100.895 25.5789 101.058 25.987 101.385 26.2772C101.72 26.5583 102.183 26.6988 102.772 26.6988Z" fill="#FF3E00"/>
<path d="M118.796 29.637C117.699 29.637 116.674 29.5327 115.722 29.3241C114.779 29.1155 113.872 28.8163 113.001 28.4263L112.961 24.264H115.722L116.252 26.386C116.561 26.5401 116.896 26.6626 117.259 26.7533C117.631 26.8439 118.052 26.8893 118.524 26.8893C119.413 26.8893 120.038 26.7442 120.401 26.454C120.764 26.1638 120.945 25.8011 120.945 25.3658C120.945 24.9577 120.75 24.5995 120.36 24.2912C119.979 23.9738 119.213 23.6972 118.061 23.4615C116.32 23.0987 115.037 22.5365 114.212 21.7748C113.387 21.013 112.974 20.0382 112.974 18.8503C112.974 18.0341 113.178 17.2905 113.586 16.6195C114.003 15.9484 114.634 15.4089 115.477 15.0008C116.329 14.5927 117.418 14.3887 118.742 14.3887C119.848 14.3887 120.859 14.4975 121.775 14.7151C122.7 14.9237 123.475 15.2003 124.101 15.5449L124.142 19.5712H121.394L120.972 17.6397C120.727 17.4583 120.437 17.3223 120.102 17.2316C119.775 17.1409 119.403 17.0956 118.986 17.0956C118.288 17.0956 117.753 17.2361 117.381 17.5172C117.009 17.7983 116.824 18.1611 116.824 18.6054C116.824 18.8593 116.887 19.0951 117.014 19.3127C117.15 19.5304 117.413 19.7344 117.803 19.9249C118.193 20.1153 118.76 20.2967 119.503 20.4689C121.326 20.8861 122.654 21.4438 123.489 22.142C124.323 22.8312 124.74 23.8015 124.74 25.053C124.74 26.4223 124.241 27.5286 123.244 28.3719C122.255 29.2153 120.773 29.637 118.796 29.637Z" fill="#FF3E00"/>
<path d="M132.33 29.637C130.961 29.637 129.905 29.2606 129.161 28.508C128.426 27.7553 128.059 26.5628 128.059 24.9305V17.422H126.032V14.6335H128.059V11.0289H132.017V14.6335H134.724V17.422H132.017V24.9169C132.017 25.4882 132.135 25.8963 132.371 26.1411C132.616 26.386 132.947 26.5084 133.364 26.5084C133.591 26.5084 133.827 26.4948 134.071 26.4676C134.325 26.4313 134.543 26.3951 134.724 26.3588L135.064 29.2289C134.656 29.3468 134.212 29.442 133.731 29.5145C133.26 29.5961 132.793 29.637 132.33 29.637Z" fill="#FF3E00"/>
<path fill-rule="evenodd" clip-rule="evenodd" d="M8.09096 1.0846C6.85294 1.36855 5.87885 1.66442 5.1643 1.91279C4.702 2.07347 4.24694 2.25151 3.801 2.45298C3.75713 2.47353 3.7136 2.4945 3.67041 2.51589C0.520036 4.07621 -0.82034 7.86901 0.678023 11.0688C0.877732 11.4953 1.11906 11.8913 1.3952 12.2536C1.56207 12.4725 1.65001 12.7441 1.62136 13.0178C1.47238 14.4416 1.37921 16.014 1.37921 17.7061C1.37921 21.1874 1.7736 24.1357 2.23725 26.3995C3.06478 30.4399 6.18555 33.4894 10.2298 34.2451C12.4311 34.6564 15.2841 35 18.6731 35C22.0622 35 24.9152 34.6564 27.1165 34.2451C31.1607 33.4894 34.2815 30.4399 35.109 26.3995C35.5727 24.1357 35.9671 21.1874 35.9671 17.7061C35.9671 16.014 35.8739 14.4416 35.7249 13.0178C35.6963 12.744 35.7842 12.4725 35.9511 12.2535C36.2272 11.8913 36.4685 11.4953 36.6682 11.0688C38.1871 7.82514 36.7889 3.97189 33.5452 2.45298L33.5376 2.44941L33.528 2.44495L33.5091 2.43615L33.4668 2.41685L33.4597 2.41362C33.4272 2.39888 33.3906 2.38255 33.35 2.36479C33.2689 2.32925 33.1715 2.28787 33.058 2.24158C32.8309 2.14901 32.539 2.03691 32.1819 1.91279C31.4674 1.66442 30.4933 1.36855 29.2553 1.0846C26.7757 0.515894 23.2589 0 18.6731 0C14.0873 0 10.5706 0.515894 8.09096 1.0846ZM16.9542 8.25307C17.9206 8.25307 18.704 7.46964 18.704 6.50324C18.704 5.53684 17.9206 4.75342 16.9542 4.75342C15.9878 4.75342 15.2044 5.53684 15.2044 6.50324C15.2044 7.46964 15.9878 8.25307 16.9542 8.25307ZM13.738 6.97698C13.738 7.94339 12.9546 8.72681 11.9882 8.72681C11.0218 8.72681 10.2383 7.94339 10.2383 6.97698C10.2383 6.01058 11.0218 5.22716 11.9882 5.22716C12.9546 5.22716 13.738 6.01058 13.738 6.97698ZM8.77192 8.04857C8.77192 9.01497 7.9885 9.7984 7.0221 9.7984C6.05569 9.7984 5.27227 9.01497 5.27227 8.04857C5.27227 7.08217 6.05569 6.29875 7.0221 6.29875C7.9885 6.29875 8.77192 7.08217 8.77192 8.04857ZM31.0996 21.9409C31.0746 21.6425 31.1573 21.3469 31.3064 21.0871C31.6979 20.4048 31.9217 19.614 31.9217 18.7709C31.9217 16.197 29.8353 14.1104 27.2616 14.1104C25.6956 14.1104 24.31 14.8829 23.4651 16.0676C23.1707 16.4804 22.7066 16.7673 22.2005 16.7373C21.1103 16.6728 19.9125 16.6342 18.6072 16.6342C14.7555 16.6342 11.8401 16.9704 9.86112 17.3159C7.88092 17.6615 6.42026 19.242 6.18606 21.2384C6.1139 21.8536 6.06417 22.4789 6.06417 23.0337C6.06417 23.5886 6.1139 24.2138 6.18606 24.829C6.42026 26.8255 7.88092 28.4059 9.86112 28.7516C11.8401 29.097 14.7555 29.4332 18.6072 29.4332C22.459 29.4332 25.3744 29.097 27.3534 28.7516C29.3336 28.4059 30.7942 26.8255 31.0284 24.829C31.1006 24.2138 31.1503 23.5886 31.1503 23.0337C31.1503 22.6901 31.1312 22.3194 31.0996 21.9409ZM29.3704 16.7198C29.6567 17.0062 29.6567 17.4704 29.3704 17.7567L28.4061 18.7211L29.3704 19.6854C29.6567 19.9718 29.6567 20.436 29.3704 20.7223C29.0841 21.0086 28.6199 21.0086 28.3336 20.7223L27.3692 19.7579L26.4048 20.7223C26.1185 21.0086 25.6543 21.0086 25.368 20.7223C25.0816 20.436 25.0816 19.9718 25.368 19.6854L26.3323 18.7211L25.368 17.7567C25.0816 17.4704 25.0816 17.0062 25.368 16.7198C25.6543 16.4335 26.1185 16.4335 26.4048 16.7198L27.3692 17.6842L28.3336 16.7198C28.6199 16.4335 29.0841 16.4335 29.3704 16.7198ZM9.2171 23.3973C9.2171 22.4525 9.98302 21.6866 10.9278 21.6866H23.7291C24.6739 21.6866 25.4399 22.4525 25.4399 23.3973C25.4399 24.3421 24.6739 25.108 23.7291 25.108H10.9278C9.98302 25.108 9.2171 24.3421 9.2171 23.3973Z" fill="#FF3E00"/>
</svg>
