<svg width="35" height="36" viewBox="0 0 35 36" fill="none" xmlns="http://www.w3.org/2000/svg">
<path d="M27.5599 17.7452C27.8292 18.0145 27.8292 18.451 27.5599 18.7203L26.653 19.6272L27.5599 20.5341C27.8292 20.8034 27.8292 21.24 27.5599 21.5092C27.2907 21.7785 26.8541 21.7785 26.5849 21.5092L25.6779 20.6023L24.771 21.5092C24.5018 21.7785 24.0652 21.7785 23.7959 21.5092C23.5267 21.24 23.5267 20.8034 23.7959 20.5341L24.7029 19.6272L23.7959 18.7203C23.5267 18.451 23.5267 18.0145 23.7959 17.7452C24.0652 17.476 24.5018 17.476 24.771 17.7452L25.6779 18.6521L26.5849 17.7452C26.8541 17.476 27.2907 17.476 27.5599 17.7452Z" fill="#123B52"/>
<path d="M8.60729 24.0249C8.60729 23.1364 9.32758 22.4161 10.2161 22.4161H22.2547C23.1433 22.4161 23.8635 23.1364 23.8635 24.0249C23.8635 24.9134 23.1433 25.6337 22.2547 25.6337H10.2161C9.32758 25.6337 8.60729 24.9134 8.60729 24.0249Z" fill="#123B52"/>
<path fill-rule="evenodd" clip-rule="evenodd" d="M7.54831 3.04147C6.38404 3.3085 5.46799 3.58675 4.79601 3.82031C4.36125 3.97142 3.9333 4.13886 3.51393 4.32832C3.47268 4.34764 3.43174 4.36736 3.39112 4.38748C0.428441 5.85484 -0.832079 9.42168 0.577015 12.4308C0.764825 12.8319 0.991775 13.2044 1.25146 13.545C1.40839 13.7509 1.49109 14.0063 1.46415 14.2638C1.32405 15.6027 1.23642 17.0814 1.23642 18.6727C1.23642 21.9466 1.60732 24.7192 2.04335 26.8482C2.82158 30.6478 5.75641 33.5156 9.55972 34.2263C11.6299 34.6131 14.3129 34.9363 17.5 34.9363C20.6872 34.9363 23.3702 34.6131 25.4403 34.2263C29.2436 33.5156 32.1785 30.6479 32.9567 26.8482C33.3927 24.7192 33.7636 21.9466 33.7636 18.6727C33.7636 17.0814 33.676 15.6027 33.5359 14.2637C33.509 14.0062 33.5917 13.7509 33.7486 13.545C34.0083 13.2043 34.2352 12.8319 34.423 12.4308C35.8514 9.38042 34.5365 5.75674 31.4861 4.32832L31.4789 4.32497L31.4699 4.32077L31.4521 4.31249L31.4124 4.29435L31.4057 4.29131C31.3751 4.27745 31.3406 4.26209 31.3025 4.24539C31.2262 4.21197 31.1346 4.17305 31.0279 4.12952C30.8143 4.04246 30.5398 3.93704 30.204 3.82031C29.532 3.58675 28.616 3.3085 27.4517 3.04147C25.1198 2.50664 21.8126 2.02148 17.5 2.02148C13.1874 2.02148 9.88018 2.50664 7.54831 3.04147ZM15.8835 9.78286C16.7923 9.78286 17.529 9.04611 17.529 8.13728C17.529 7.22846 16.7923 6.49171 15.8835 6.49171C14.9746 6.49171 14.2379 7.22846 14.2379 8.13728C14.2379 9.04611 14.9746 9.78286 15.8835 9.78286ZM12.8588 8.5828C12.8588 9.49163 12.1221 10.2284 11.2133 10.2284C10.3044 10.2284 9.56769 9.49163 9.56769 8.5828C9.56769 7.67397 10.3044 6.93722 11.2133 6.93722C12.1221 6.93722 12.8588 7.67397 12.8588 8.5828ZM8.18864 9.59055C8.18864 10.4994 7.45189 11.2361 6.54307 11.2361C5.63424 11.2361 4.89749 10.4994 4.89749 9.59055C4.89749 8.68172 5.63424 7.94497 6.54307 7.94497C7.45189 7.94497 8.18864 8.68172 8.18864 9.59055ZM29.1862 22.6552C29.1627 22.3746 29.2405 22.0966 29.3807 21.8523C29.7488 21.2106 29.9594 20.4669 29.9594 19.674C29.9594 17.2535 27.9973 15.2912 25.5769 15.2912C24.1042 15.2912 22.8011 16.0177 22.0065 17.1318C21.7297 17.52 21.2932 17.7898 20.8173 17.7616C19.792 17.701 18.6656 17.6647 17.4381 17.6647C13.8158 17.6647 11.0741 17.9808 9.21306 18.3057C7.35084 18.6308 5.97719 20.1171 5.75695 21.9946C5.68909 22.5731 5.64232 23.1611 5.64232 23.6829C5.64232 24.2047 5.68909 24.7927 5.75695 25.3712C5.97719 27.2487 7.35084 28.735 9.21306 29.0601C11.0741 29.385 13.8158 29.7012 17.4381 29.7012C21.0604 29.7012 23.8021 29.385 25.6632 29.0601C27.5254 28.735 28.899 27.2487 29.1193 25.3712C29.1871 24.7927 29.2339 24.2047 29.2339 23.6829C29.2339 23.3597 29.216 23.0112 29.1862 22.6552Z" fill="#123B52"/>
</svg>
