<svg width="136" height="36" viewBox="0 0 136 36" fill="none" xmlns="http://www.w3.org/2000/svg">
<path d="M52.8756 29.979C51.4156 29.979 50.0871 29.8158 48.8901 29.4893C47.6931 29.1629 46.5143 28.5961 45.3535 27.789V23.001H48.4277L48.8493 25.8167C49.2574 26.1613 49.8196 26.4424 50.536 26.66C51.2524 26.8686 52.0323 26.9729 52.8756 26.9729C53.592 26.9729 54.1951 26.8731 54.6848 26.6736C55.1835 26.4741 55.5598 26.193 55.8137 25.8303C56.0767 25.4585 56.2082 25.0232 56.2082 24.5244C56.2082 24.0529 56.0903 23.6358 55.8546 23.273C55.6278 22.9012 55.247 22.5657 54.712 22.2664C54.186 21.9581 53.4696 21.6634 52.5628 21.3823C50.994 20.9198 49.6927 20.4165 48.6589 19.8724C47.6342 19.3193 46.8634 18.6618 46.3465 17.9001C45.8387 17.1293 45.5848 16.2043 45.5848 15.1252C45.5848 14.0551 45.8795 13.112 46.4689 12.2959C47.0674 11.4707 47.8926 10.8223 48.9445 10.3508C49.9965 9.87921 51.2116 9.63436 52.59 9.61623C54.1135 9.59809 55.4601 9.77946 56.6299 10.1603C57.8088 10.5412 58.8244 11.0717 59.6768 11.7518V16.2134H56.6979L56.181 13.4929C55.8364 13.2753 55.3694 13.0848 54.78 12.9216C54.1996 12.7584 53.5376 12.6768 52.794 12.6768C52.1592 12.6768 51.597 12.772 51.1073 12.9624C50.6267 13.1528 50.2458 13.4294 49.9647 13.7922C49.6836 14.1549 49.543 14.5947 49.543 15.1116C49.543 15.5559 49.6655 15.9459 49.9103 16.2814C50.1552 16.6079 50.5632 16.9207 51.1345 17.22C51.7149 17.5101 52.5129 17.823 53.5285 18.1585C55.714 18.7661 57.369 19.5686 58.4934 20.5661C59.627 21.5637 60.1937 22.874 60.1937 24.4972C60.1937 25.6217 59.8899 26.5965 59.2824 27.4217C58.6748 28.2379 57.8224 28.8681 56.7251 29.3125C55.6278 29.7568 54.3447 29.979 52.8756 29.979Z" fill="#123B52"/>
<path d="M69.6066 29.6933L63.2406 12.4999L61.4723 12.2823V9.88827H69.3481V12.2823L67.5662 12.5543L71.4565 24.2388L71.7557 25.327H71.8374L72.123 24.266L76.0133 12.5543L73.9321 12.2823V9.88827H81.4406V12.2823L79.6451 12.4999L73.6737 29.6933H69.6066Z" fill="#123B52"/>
<path d="M88.0817 29.979C86.6308 29.979 85.3839 29.6616 84.3411 29.0268C83.2982 28.3921 82.5002 27.5124 81.9471 26.388C81.3939 25.2544 81.1173 23.9531 81.1173 22.4841V22.1984C81.1173 20.7384 81.3939 19.4462 81.9471 18.3218C82.5002 17.1882 83.2937 16.3041 84.3275 15.6693C85.3703 15.0254 86.6127 14.7035 88.0545 14.7035C89.5145 14.7035 90.7614 15.0254 91.7952 15.6693C92.829 16.3041 93.6224 17.1837 94.1756 18.3082C94.7288 19.4326 95.0054 20.7294 95.0054 22.1984V22.4841C95.0054 23.9531 94.7288 25.2544 94.1756 26.388C93.6224 27.5124 92.829 28.3921 91.7952 29.0268C90.7614 29.6616 89.5236 29.979 88.0817 29.979ZM88.0817 26.9321C88.7709 26.9321 89.3332 26.7462 89.7684 26.3744C90.2037 26.0026 90.5256 25.4857 90.7342 24.8237C90.9428 24.1526 91.0471 23.3728 91.0471 22.4841V22.1984C91.0471 21.3279 90.9428 20.5616 90.7342 19.8996C90.5256 19.2286 90.1992 18.7072 89.7548 18.3354C89.3196 17.9545 88.7528 17.7641 88.0545 17.7641C87.3744 17.7641 86.8122 17.9545 86.3678 18.3354C85.9235 18.7072 85.597 19.2286 85.3885 19.8996C85.189 20.5616 85.0892 21.3279 85.0892 22.1984V22.4841C85.0892 23.3728 85.189 24.1526 85.3885 24.8237C85.597 25.4947 85.9235 26.0162 86.3678 26.388C86.8122 26.7507 87.3835 26.9321 88.0817 26.9321Z" fill="#123B52"/>
<path d="M101.711 29.979C100.251 29.979 99.0906 29.5891 98.2291 28.8092C97.3676 28.0203 96.9369 26.9502 96.9369 25.599C96.9369 24.6741 97.1863 23.8625 97.685 23.1642C98.1928 22.4659 98.9364 21.9173 99.9158 21.5183C100.904 21.1193 102.119 20.9198 103.561 20.9198H105.506V19.8316C105.506 19.1243 105.298 18.553 104.881 18.1177C104.473 17.6734 103.856 17.4512 103.031 17.4512C102.605 17.4512 102.224 17.5056 101.888 17.6144C101.553 17.7142 101.244 17.8593 100.963 18.0497L100.65 19.9948H97.7938L97.7394 16.1726C98.5102 15.7373 99.3445 15.3836 100.242 15.1116C101.14 14.8395 102.142 14.7035 103.248 14.7035C105.171 14.7035 106.69 15.1524 107.805 16.0502C108.921 16.9388 109.478 18.2129 109.478 19.8724V25.9391C109.478 26.1386 109.478 26.3381 109.478 26.5376C109.487 26.728 109.505 26.9139 109.533 27.0953L111.07 27.3129V29.6933H106.146C106.046 29.4394 105.946 29.1674 105.846 28.8772C105.747 28.587 105.674 28.2968 105.629 28.0067C105.157 28.6052 104.6 29.0858 103.956 29.4485C103.321 29.8022 102.573 29.979 101.711 29.979ZM102.772 27.0409C103.325 27.0409 103.851 26.9185 104.35 26.6736C104.849 26.4197 105.234 26.0887 105.506 25.6806V23.3546H103.548C102.677 23.3546 102.015 23.5541 101.562 23.9531C101.117 24.3521 100.895 24.8328 100.895 25.395C100.895 25.921 101.058 26.329 101.385 26.6192C101.72 26.9003 102.183 27.0409 102.772 27.0409Z" fill="#123B52"/>
<path d="M118.796 29.979C117.699 29.979 116.674 29.8747 115.722 29.6661C114.779 29.4576 113.872 29.1583 113.001 28.7684L112.961 24.6061H115.722L116.252 26.728C116.561 26.8822 116.896 27.0046 117.259 27.0953C117.631 27.186 118.052 27.2313 118.524 27.2313C119.413 27.2313 120.038 27.0862 120.401 26.796C120.764 26.5059 120.945 26.1431 120.945 25.7078C120.945 25.2998 120.75 24.9416 120.36 24.6333C119.979 24.3159 119.213 24.0393 118.061 23.8035C116.32 23.4408 115.037 22.8786 114.212 22.1168C113.387 21.3551 112.974 20.3802 112.974 19.1923C112.974 18.3762 113.178 17.6326 113.586 16.9615C114.003 16.2905 114.634 15.7509 115.477 15.3428C116.329 14.9348 117.418 14.7307 118.742 14.7307C119.848 14.7307 120.859 14.8395 121.775 15.0572C122.7 15.2658 123.475 15.5423 124.101 15.8869L124.142 19.9132H121.394L120.972 17.9817C120.727 17.8003 120.437 17.6643 120.102 17.5736C119.775 17.4829 119.403 17.4376 118.986 17.4376C118.288 17.4376 117.753 17.5782 117.381 17.8593C117.009 18.1404 116.824 18.5031 116.824 18.9475C116.824 19.2014 116.887 19.4371 117.014 19.6548C117.15 19.8724 117.413 20.0765 117.803 20.2669C118.193 20.4573 118.76 20.6387 119.503 20.811C121.326 21.2281 122.654 21.7858 123.489 22.4841C124.323 23.1733 124.74 24.1436 124.74 25.395C124.74 26.7643 124.241 27.8706 123.244 28.714C122.255 29.5573 120.773 29.979 118.796 29.979Z" fill="#123B52"/>
<path d="M132.33 29.979C130.961 29.979 129.905 29.6027 129.161 28.85C128.426 28.0973 128.059 26.9049 128.059 25.2726V17.7641H126.032V14.9756H128.059V11.3709H132.017V14.9756H134.724V17.7641H132.017V25.259C132.017 25.8303 132.135 26.2383 132.371 26.4832C132.616 26.728 132.947 26.8504 133.364 26.8504C133.591 26.8504 133.827 26.8368 134.071 26.8096C134.325 26.7734 134.543 26.7371 134.724 26.7008L135.064 29.5709C134.656 29.6888 134.212 29.784 133.731 29.8566C133.26 29.9382 132.793 29.979 132.33 29.979Z" fill="#123B52"/>
<path fill-rule="evenodd" clip-rule="evenodd" d="M8.09096 1.42664C6.85294 1.71059 5.87885 2.00646 5.1643 2.25483C4.702 2.41551 4.24694 2.59355 3.801 2.79502C3.75713 2.81557 3.7136 2.83654 3.67041 2.85793C0.520036 4.41825 -0.82034 8.21105 0.678023 11.4109C0.877732 11.8373 1.11906 12.2334 1.3952 12.5956C1.56207 12.8146 1.65001 13.0861 1.62136 13.3599C1.47238 14.7837 1.37921 16.356 1.37921 18.0481C1.37921 21.5294 1.7736 24.4777 2.23725 26.7415C3.06478 30.7819 6.18555 33.8314 10.2298 34.5871C12.4311 34.9984 15.2841 35.342 18.6731 35.342C22.0622 35.342 24.9152 34.9984 27.1165 34.5871C31.1607 33.8314 34.2815 30.7819 35.109 26.7415C35.5727 24.4777 35.9671 21.5294 35.9671 18.0481C35.9671 16.356 35.8739 14.7836 35.7249 13.3598C35.6963 13.0861 35.7842 12.8145 35.9511 12.5956C36.2272 12.2333 36.4685 11.8373 36.6682 11.4109C38.1871 8.16718 36.7889 4.31393 33.5452 2.79502L33.5376 2.79145L33.528 2.78699L33.5091 2.77819L33.4668 2.75889L33.4597 2.75567C33.4272 2.74092 33.3906 2.72459 33.35 2.70683C33.2689 2.67129 33.1715 2.62991 33.058 2.58362C32.8309 2.49105 32.539 2.37895 32.1819 2.25483C31.4674 2.00646 30.4933 1.71059 29.2553 1.42664C26.7757 0.857935 23.2589 0.342041 18.6731 0.342041C14.0873 0.342041 10.5706 0.857935 8.09096 1.42664ZM16.9542 8.59511C17.9206 8.59511 18.704 7.81168 18.704 6.84528C18.704 5.87888 17.9206 5.09546 16.9542 5.09546C15.9878 5.09546 15.2044 5.87888 15.2044 6.84528C15.2044 7.81168 15.9878 8.59511 16.9542 8.59511ZM13.738 7.31902C13.738 8.28543 12.9546 9.06885 11.9882 9.06885C11.0218 9.06885 10.2383 8.28543 10.2383 7.31902C10.2383 6.35262 11.0218 5.5692 11.9882 5.5692C12.9546 5.5692 13.738 6.35262 13.738 7.31902ZM8.77192 8.39061C8.77192 9.35701 7.9885 10.1404 7.0221 10.1404C6.05569 10.1404 5.27227 9.35701 5.27227 8.39061C5.27227 7.42421 6.05569 6.64079 7.0221 6.64079C7.9885 6.64079 8.77192 7.42421 8.77192 8.39061ZM31.0996 22.283C31.0746 21.9846 31.1573 21.6889 31.3064 21.4292C31.6979 20.7469 31.9217 19.956 31.9217 19.1129C31.9217 16.539 29.8353 14.4524 27.2616 14.4524C25.6956 14.4524 24.31 15.2249 23.4651 16.4097C23.1707 16.8224 22.7066 17.1093 22.2005 17.0794C21.1103 17.0149 19.9125 16.9762 18.6072 16.9762C14.7555 16.9762 11.8401 17.3124 9.86112 17.6579C7.88092 18.0036 6.42026 19.584 6.18606 21.5805C6.1139 22.1957 6.06417 22.8209 6.06417 23.3758C6.06417 23.9306 6.1139 24.5559 6.18606 25.1711C6.42026 27.1675 7.88092 28.7479 9.86112 29.0936C11.8401 29.4391 14.7555 29.7753 18.6072 29.7753C22.459 29.7753 25.3744 29.4391 27.3534 29.0936C29.3336 28.7479 30.7942 27.1675 31.0284 25.1711C31.1006 24.5559 31.1503 23.9306 31.1503 23.3758C31.1503 23.0321 31.1312 22.6615 31.0996 22.283ZM29.3704 17.0619C29.6567 17.3482 29.6567 17.8124 29.3704 18.0987L28.4061 19.0631L29.3704 20.0275C29.6567 20.3138 29.6567 20.778 29.3704 21.0643C29.0841 21.3507 28.6199 21.3507 28.3336 21.0643L27.3692 20.1L26.4048 21.0643C26.1185 21.3507 25.6543 21.3507 25.368 21.0643C25.0816 20.778 25.0816 20.3138 25.368 20.0275L26.3323 19.0631L25.368 18.0987C25.0816 17.8124 25.0816 17.3482 25.368 17.0619C25.6543 16.7756 26.1185 16.7756 26.4048 17.0619L27.3692 18.0262L28.3336 17.0619C28.6199 16.7756 29.0841 16.7756 29.3704 17.0619ZM9.2171 23.7393C9.2171 22.7945 9.98302 22.0286 10.9278 22.0286H23.7291C24.6739 22.0286 25.4399 22.7945 25.4399 23.7393C25.4399 24.6841 24.6739 25.45 23.7291 25.45H10.9278C9.98302 25.45 9.2171 24.6841 9.2171 23.7393Z" fill="#123B52"/>
</svg>
